<?xml version="1.0" encoding="UTF-8"?>
<svg fill="currentColor" width="128pt" height="128pt" version="1.1" viewBox="0 0 128 128" xmlns="http://www.w3.org/2000/svg">
  <g>
    <path d="m96.504 74.418 16.223-16.223c11.832-11.832 11.832-31.086 0-42.918-11.832-11.836-31.086-11.836-42.918 0l-23.41 23.406c-11.832 11.832-11.832 31.086 0 42.918 1.7461 1.75 3.6602 3.2305 5.6836 4.4609l12.531-12.535c-2.3867-0.57031-4.6523-1.7734-6.5117-3.6328-5.3789-5.3789-5.3789-14.133 0-19.508l23.41-23.41c5.3789-5.3789 14.133-5.3789 19.508 0 5.3789 5.3789 5.3789 14.129 0 19.508l-6.8789 6.8789c2.8359 6.6758 3.6211 14.008 2.3633 21.055z"/>
    <path d="m31.496 53.582-16.219 16.223c-11.836 11.832-11.836 31.086 0 42.918 11.832 11.832 31.086 11.832 42.918 0l23.41-23.41c11.832-11.832 11.832-31.086 0-42.918-1.7461-1.75-3.6602-3.2305-5.6836-4.4609l-12.531 12.535c2.3867 0.57031 4.6484 1.7734 6.5117 3.6328 5.3789 5.3789 5.3789 14.129 0 19.508l-23.41 23.41c-5.3789 5.3789-14.129 5.3789-19.508 0-5.3789-5.3789-5.3789-14.129 0-19.508l6.8789-6.8789c-2.8398-6.668-3.625-14.004-2.3672-21.051z"/>
  </g>
</svg>
